HIERARCHY
ROOT Hips
{
    OFFSET   0.000000   0.000000   0.000000
    CHANNELS 6 Xposition Yposition Zposition Zrotation Xrotation Yrotation
    JOINT Chest
    {
        OFFSET   0.000000   8.007240   0.000000
        CHANNELS 3 Zrotation Xrotation Yrotation
        JOINT Chest2
        {
            OFFSET   0.000000  22.077100   0.000000
            CHANNELS 3 Zrotation Xrotation Yrotation
            JOINT Neck
            {
                OFFSET   0.000000  23.254800   0.000000
                CHANNELS 3 Zrotation Xrotation Yrotation
                JOINT Head
                {
                    OFFSET   0.000000  14.370000   1.956600
                    CHANNELS 3 Zrotation Xrotation Yrotation
                    End Site
                    {
                        OFFSET   0.000000  19.566000   0.000000
                    }
                }
            }
            JOINT LeftCollar
            {
                OFFSET   3.911900  19.017000  -0.467064
                CHANNELS 3 Zrotation Xrotation Yrotation
                JOINT LeftShoulder
                {
                    OFFSET  10.383700   0.000000   0.000000
                    CHANNELS 3 Zrotation Xrotation Yrotation
                    JOINT LeftElbow
                    {
                        OFFSET  26.662100   0.001476   0.000517
                        CHANNELS 3 Zrotation Xrotation Yrotation
                        JOINT LeftWrist
                        {
                            OFFSET  28.869000  -0.000025  -0.000106
                            CHANNELS 3 Zrotation Xrotation Yrotation
                            JOINT LeftFinger0
                            {
                                OFFSET   2.044660  -2.323460   3.252850
                                CHANNELS 3 Zrotation Xrotation Yrotation
                                JOINT LeftFinger01
                                {
                                    OFFSET   3.088130   0.000000   0.000000
                                    CHANNELS 3 Zrotation Xrotation Yrotation
                                    JOINT LeftFinger02
                                    {
                                        OFFSET   2.639460   0.000000   0.000000
                                        CHANNELS 3 Zrotation Xrotation Yrotation
                                        End Site
                                        {
                                            OFFSET   2.582190   0.000000   0.000000
                                        }
                                    }
                                }
                            }
                            JOINT LeftFinger1
                            {
                                OFFSET   8.364480   0.000000   3.252850
                                CHANNELS 3 Zrotation Xrotation Yrotation
                                JOINT LeftFinger11
                                {
                                    OFFSET   4.646930   0.000000   0.000000
                                    CHANNELS 3 Zrotation Xrotation Yrotation
                                    JOINT LeftFinger12
                                    {
                                        OFFSET   2.323460   0.000000   0.000000
                                        CHANNELS 3 Zrotation Xrotation Yrotation
                                        End Site
                                        {
                                            OFFSET   2.273050   0.000000   0.000000
                                        }
                                    }
                                }
                            }
                            JOINT LeftFinger2
                            {
                                OFFSET   8.364490   0.000015   1.078090
                                CHANNELS 3 Zrotation Xrotation Yrotation
                                JOINT LeftFinger21
                                {
                                    OFFSET   5.111620   0.000000   0.000000
                                    CHANNELS 3 Zrotation Xrotation Yrotation
                                    JOINT LeftFinger22
                                    {
                                        OFFSET   2.788160   0.000016   0.000000
                                        CHANNELS 3 Zrotation Xrotation Yrotation
                                        End Site
                                        {
                                            OFFSET   2.727660   0.000000   0.000000
                                        }
                                    }
                                }
                            }
                            JOINT LeftFinger3
                            {
                                OFFSET   7.899780   0.000017  -1.078090
                                CHANNELS 3 Zrotation Xrotation Yrotation
                                JOINT LeftFinger31
                                {
                                    OFFSET   4.646930   0.000000   0.000000
                                    CHANNELS 3 Zrotation Xrotation Yrotation
                                    JOINT LeftFinger32
                                    {
                                        OFFSET   2.323470   0.000000   0.000000
                                        CHANNELS 3 Zrotation Xrotation Yrotation
                                        End Site
                                        {
                                            OFFSET   2.273050   0.000000   0.000000
                                        }
                                    }
                                }
                            }
                            JOINT LeftFinger4
                            {
                                OFFSET   7.435090   0.000000  -3.252850
                                CHANNELS 3 Zrotation Xrotation Yrotation
                                JOINT LeftFinger41
                                {
                                    OFFSET   3.717550   0.000000   0.000000
                                    CHANNELS 3 Zrotation Xrotation Yrotation
                                    JOINT LeftFinger42
                                    {
                                        OFFSET   1.858770   0.000000   0.000000
                                        CHANNELS 3 Zrotation Xrotation Yrotation
                                        End Site
                                        {
                                            OFFSET   1.818440   0.000000   0.000000
                                        }
                                    }
                                }
                            }
                        }
                    }
                }
            }
            JOINT RightCollar
            {
                OFFSET  -3.911900  19.017000  -0.467063
                CHANNELS 3 Zrotation Xrotation Yrotation
                JOINT RightShoulder
                {
                    OFFSET -10.383700   0.000019   0.000000
                    CHANNELS 3 Zrotation Xrotation Yrotation
                    JOINT RightElbow
                    {
                        OFFSET -26.662100   0.001175   0.000102
                        CHANNELS 3 Zrotation Xrotation Yrotation
                        JOINT RightWrist
                        {
                            OFFSET -28.869000   0.000016  -0.000079
                            CHANNELS 3 Zrotation Xrotation Yrotation
                            JOINT RightFinger0
                            {
                                OFFSET  -2.044660  -2.323490   3.252850
                                CHANNELS 3 Zrotation Xrotation Yrotation
                                JOINT RightFinger01
                                {
                                    OFFSET  -3.088140   0.000000   0.000000
                                    CHANNELS 3 Zrotation Xrotation Yrotation
                                    JOINT RightFinger02
                                    {
                                        OFFSET  -2.639460   0.000000   0.000000
                                        CHANNELS 3 Zrotation Xrotation Yrotation
                                        End Site
                                        {
                                            OFFSET  -2.582190   0.000000   0.000000
                                        }
                                    }
                                }
                            }
                            JOINT RightFinger1
                            {
                                OFFSET  -8.364480   0.000000   3.252850
                                CHANNELS 3 Zrotation Xrotation Yrotation
                                JOINT RightFinger11
                                {
                                    OFFSET  -4.646930   0.000000   0.000000
                                    CHANNELS 3 Zrotation Xrotation Yrotation
                                    JOINT RightFinger12
                                    {
                                        OFFSET  -2.323470   0.000000   0.000000
                                        CHANNELS 3 Zrotation Xrotation Yrotation
                                        End Site
                                        {
                                            OFFSET  -2.273050   0.000000   0.000000
                                        }
                                    }
                                }
                            }
                            JOINT RightFinger2
                            {
                                OFFSET  -8.364480   0.000000   1.078090
                                CHANNELS 3 Zrotation Xrotation Yrotation
                                JOINT RightFinger21
                                {
                                    OFFSET  -5.111620   0.000000   0.000000
                                    CHANNELS 3 Zrotation Xrotation Yrotation
                                    JOINT RightFinger22
                                    {
                                        OFFSET  -2.788160   0.000000   0.000000
                                        CHANNELS 3 Zrotation Xrotation Yrotation
                                        End Site
                                        {
                                            OFFSET  -2.727660   0.000000   0.000000
                                        }
                                    }
                                }
                            }
                            JOINT RightFinger3
                            {
                                OFFSET  -7.899780   0.000000  -1.078090
                                CHANNELS 3 Zrotation Xrotation Yrotation
                                JOINT RightFinger31
                                {
                                    OFFSET  -4.646930   0.000000   0.000000
                                    CHANNELS 3 Zrotation Xrotation Yrotation
                                    JOINT RightFinger32
                                    {
                                        OFFSET  -2.323470   0.000000   0.000000
                                        CHANNELS 3 Zrotation Xrotation Yrotation
                                        End Site
                                        {
                                            OFFSET  -2.273050   0.000000   0.000000
                                        }
                                    }
                                }
                            }
                            JOINT RightFinger4
                            {
                                OFFSET  -7.435090   0.000000  -3.252850
                                CHANNELS 3 Zrotation Xrotation Yrotation
                                JOINT RightFinger41
                                {
                                    OFFSET  -3.717550   0.000000   0.000000
                                    CHANNELS 3 Zrotation Xrotation Yrotation
                                    JOINT RightFinger42
                                    {
                                        OFFSET  -1.858770   0.000000   0.000000
                                        CHANNELS 3 Zrotation Xrotation Yrotation
                                        End Site
                                        {
                                            OFFSET  -1.818440   0.000000   0.000000
                                        }
                                    }
                                }
                            }
                        }
                    }
                }
            }
        }
    }
    JOINT LeftHip
    {
        OFFSET   9.783040   0.000000   0.000000
        CHANNELS 3 Zrotation Xrotation Yrotation
        JOINT LeftKnee
        {
            OFFSET   0.000032 -41.789100  -0.002222
            CHANNELS 3 Zrotation Xrotation Yrotation
            JOINT LeftAnkle
            {
                OFFSET   0.000087 -41.133200  -0.000135
                CHANNELS 3 Zrotation Xrotation Yrotation
                JOINT LeftToe
                {
                    OFFSET   0.000000  -6.358960  14.674500
                    CHANNELS 3 Zrotation Xrotation Yrotation
                    End Site
                    {
                        OFFSET   0.000000   0.000000   3.913200
                    }
                }
            }
        }
    }
    JOINT RightHip
    {
        OFFSET  -9.783040   0.000000   0.000000
        CHANNELS 3 Zrotation Xrotation Yrotation
        JOINT RightKnee
        {
            OFFSET   0.000047 -41.789100  -0.000896
            CHANNELS 3 Zrotation Xrotation Yrotation
            JOINT RightAnkle
            {
                OFFSET  -0.000117 -41.133300  -0.000248
                CHANNELS 3 Zrotation Xrotation Yrotation
                JOINT RightToe
                {
                    OFFSET   0.000000  -6.358970  14.674500
                    CHANNELS 3 Zrotation Xrotation Yrotation
                    End Site
                    {
                        OFFSET   0.000000   0.000000   3.913200
                    }
                }
            }
        }
    }
}
MOTION
Frames: 5
Frame Time:   0.016667
  1.505400  89.534700   0.904789  -2.993790  -6.416960  -0.391441   1.150140   4.123160  -0.388468   2.337460   8.237560  -0.863444   0.468581  -0.508255   0.006251   0.760799  -1.032740   4.348230  -5.600250   1.579050  -0.110551 -68.282700  17.780700  -8.771490  -2.139360  -6.840150  -8.955360   4.064120  -9.152610   9.788180  41.681000  31.418300 -71.329900  -4.737020   0.006387   0.004376   2.631510   0.004465   0.002291 -25.123800   4.789080 -10.090700 -20.900000   0.003245  -0.000000 -14.629100   0.002226  -0.001214 -26.845400   3.127980  -6.155670 -27.019400  -0.003410  -0.001838 -17.985200   0.002226  -0.001231 -26.235400   0.834588  -1.692490 -26.247200   0.001218  -0.001618 -17.480700   0.001969  -0.001067 -28.687000   0.906294  -1.655200 -43.049400   0.001498  -0.012252 -28.670900   0.002098   0.000260   6.883550  -0.173733   8.696180  68.868100   6.246480   0.863629   1.942040  -4.916300   6.325680 -11.166600  -5.399790   3.183380 -51.488500  42.022800  84.479200  20.461200   0.000000  -0.000131   5.230610  -0.003184  -0.000068  34.234000  11.048800  15.746000  29.262100  -0.007412  -0.008550  20.483500  -0.006696  -0.004266  28.754300   4.989920   9.004680  43.721500  -0.005207  -0.015331  29.118400  -0.001186  -0.005093  31.082900   3.616080   5.974410  46.908300  -0.012551  -0.005263  31.240900  -0.000668   0.001296  45.001600  -2.671460  -2.657880  67.594800  -0.000487  -0.012447  45.018100  -0.006047   0.006632   2.681180  10.569600   0.053796   0.526553   0.379513   2.244200  -1.796930  -3.677550   2.960730   0.000000   0.000000   0.000000   0.779826   4.450330  -1.346630   0.437993   6.450020  -1.164950  -1.859380  -3.522790  -0.778077  -0.000000   0.000000   0.000000
  1.505160  89.534700   0.891351  -2.993870  -6.432720  -0.391555   1.150020   4.134730  -0.388589   2.337320   8.260680  -0.863930   0.461690  -0.508594   0.006244   0.753905  -1.033140   4.336350  -5.600370   1.570730  -0.110810 -68.275000  17.801800  -8.783750  -2.142110  -6.855060  -8.938110   4.063020  -9.152800   9.781500  41.689700  31.431600 -71.342600  -4.722660   0.006382   0.004375   2.639250   0.004465   0.002298 -25.121800   4.793820 -10.103900 -20.900000   0.003245   0.000000 -14.628700   0.002223  -0.001213 -26.843500   3.137010  -6.173690 -27.012100  -0.003408  -0.001836 -17.985200   0.002226  -0.001230 -26.234900   0.843173  -1.710410 -26.247200   0.001219  -0.001614 -17.480700   0.001968  -0.001064 -28.686500   0.915668  -1.672750 -43.049400   0.001498  -0.012254 -28.670900   0.002098   0.000258   6.885150  -0.184106   8.704490  68.844200   6.253870   0.850052   1.950250  -4.927800   6.310910 -11.150200  -5.405100   3.184740 -51.485000  42.004700  84.445100  20.469700   0.000000  -0.000113   5.234970  -0.003183  -0.000067  34.196300  11.048200  15.762000  29.232800  -0.007419  -0.008555  20.463000  -0.006697  -0.004269  28.733600   4.989730   9.012390  43.691000  -0.005200  -0.015334  29.098100  -0.001175  -0.005094  31.076500   3.615960   5.974230  46.898400  -0.012559  -0.005275  31.234300  -0.000641   0.001299  44.993000  -2.668900  -2.657740  67.582000  -0.000482  -0.012449  45.009600  -0.006054   0.006639   2.673400  10.586400   0.033839   0.533141   0.361559   2.258100  -1.797670  -3.654080   2.961110   0.000000   0.000000   0.000000   0.780114   4.460300  -1.346640   0.436894   6.462380  -1.148610  -1.856420  -3.528390  -0.794937  -0.000000   0.000000  -0.000000
  1.504930  89.534700   0.869490  -2.994000  -6.459990  -0.391678   1.149970   4.154330  -0.388835   2.337490   8.299860  -0.864860   0.452956  -0.510972   0.006224   0.744435  -1.035860   4.319920  -5.600570   1.559910  -0.111172 -68.262000  17.831900  -8.798250  -2.148420  -6.869970  -8.920860   4.061210  -9.153100   9.770600  41.701900  31.450700 -71.361000  -4.705230   0.006372   0.004366   2.647390   0.004465   0.002304 -25.118900   4.801230 -10.122100 -20.900000   0.003245   0.000000 -14.628300   0.002216  -0.001211 -26.840800   3.149090  -6.198430 -27.004900  -0.003405  -0.001831 -17.985200   0.002224  -0.001226 -26.234400   0.852029  -1.728340 -26.247200   0.001219  -0.001603 -17.480700   0.001968  -0.001057 -28.685900   0.925190  -1.690310 -43.049400   0.001499  -0.012260 -28.670900   0.002098   0.000256   6.887640  -0.200222   8.717790  68.803400   6.269520   0.824645   1.958980  -4.944150   6.296190 -11.133600  -5.412430   3.186120 -51.481600  41.986600  84.411000  20.483500   0.000000  -0.000079   5.241760  -0.003172  -0.000063  34.131800  11.047000  15.789500  29.182800  -0.007432  -0.008565  20.428000  -0.006703  -0.004273  28.703000   4.989400   9.023860  43.645600  -0.005187  -0.015347  29.068000  -0.001151  -0.005097  31.067200   3.615740   5.973930  46.884300  -0.012578  -0.005307  31.224900  -0.000581   0.001306  44.977800  -2.664170  -2.657590  67.559200  -0.000473  -0.012455  44.994500  -0.006072   0.006658   2.662420  10.605100   0.005407   0.542048   0.343603   2.279660  -1.798470  -3.629160   2.961490  -0.000000   0.000000   0.000000   0.780401   4.470260  -1.346640   0.436001   6.485480  -1.132300  -1.852130  -3.536650  -0.817980  -0.000000   0.000000   0.000000
  1.504940  89.534600   0.852895  -2.994050  -6.484020  -0.391671   1.150570   4.170560  -0.389146   2.338940   8.332320  -0.865894   0.450805  -0.518887   0.006183   0.741556  -1.051210   4.315680  -5.600790   1.556990  -0.111326 -68.250000  17.843300  -8.800010  -2.157990  -6.858860  -8.933670   4.059440  -9.151460   9.762120  41.707100  31.460500 -71.371400  -4.701630   0.006365   0.004345   2.647850   0.004464   0.002289 -25.121500   4.807140 -10.128600 -20.903100   0.003246   0.000000 -14.631200   0.002207  -0.001207 -26.840000   3.152150  -6.207320 -27.009800  -0.003400  -0.001821 -17.988500   0.002223  -0.001220 -26.241200   0.852312  -1.726910 -26.254000   0.001219  -0.001585 -17.485200   0.001968  -0.001045 -28.690100   0.925356  -1.688930 -43.055500   0.001500  -0.012273 -28.675000   0.002098   0.000257   6.889550  -0.212818   8.726160  68.771900   6.285110   0.801356   1.955230  -4.952170   6.297240 -11.138500  -5.414260   3.182470 -51.487300  42.004600  84.445300  20.496500  -0.000036  -0.000045   5.247140  -0.003136  -0.000038  34.079000  11.044400  15.812100  29.141400  -0.007444  -0.008578  20.399000  -0.006718  -0.004277  28.689000   4.989110   9.029200  43.623900  -0.005174  -0.015374  29.053600  -0.001121  -0.005103  31.062400   3.615460   5.973620  46.877500  -0.012603  -0.005355  31.220000  -0.000495   0.001315  44.959800  -2.658090  -2.657940  67.532300  -0.000460  -0.012464  44.976600  -0.006099   0.006689   2.657640  10.606500  -0.005800   0.544616   0.363787   2.292700  -1.799730  -3.627860   2.961060  -0.000000   0.000000  -0.000000   0.778159   4.469770  -1.342430   0.436452   6.516090  -1.132390  -1.850290  -3.541660  -0.825855  -0.000000   0.000000  -0.000000
  1.505070  89.534600   0.837400  -2.994080  -6.509040  -0.391512   1.151690   4.187430  -0.389466   2.341390   8.366040  -0.866989   0.450498  -0.532784   0.006144   0.742403  -1.080540   4.311800  -5.600920   1.556570  -0.111377 -68.236200  17.851800  -8.801620  -2.167730  -6.838220  -8.955880   4.057640  -9.148920   9.754180  41.708900  31.464600 -71.376000  -4.701120   0.006355   0.004314   2.647920   0.004463   0.002274 -25.128600   4.810430 -10.130100 -20.909100   0.003246   0.000000 -14.636300   0.002197  -0.001205 -26.839800   3.153140  -6.209500 -27.020300  -0.003393  -0.001808 -17.995600   0.002222  -0.001212 -26.253100   0.852394  -1.724540 -26.265900   0.001219  -0.001560 -17.493100   0.001968  -0.001029 -28.698700   0.925390  -1.686620 -43.068400   0.001501  -0.012290 -28.683600   0.002098   0.000258   6.890610  -0.219668   8.736130  68.732600   6.312490   0.768991   1.951450  -4.955300   6.304060 -11.145300  -5.415950   3.178820 -51.519300  42.064700  84.554200  20.504100  -0.000093   0.000000   5.250070  -0.003094   0.000000  34.021100  11.039600  15.836900  29.095600  -0.007460  -0.008595  20.366900  -0.006736  -0.004284  28.674000   4.988900   9.034690  43.602600  -0.005158  -0.015408  29.039400  -0.001093  -0.005111  31.060500   3.615270   5.973440  46.874800  -0.012636  -0.005418  31.217900  -0.000403   0.001326  44.948500  -2.654160  -2.658810  67.515400  -0.000448  -0.012476  44.965300  -0.006134   0.006730   2.655410  10.607800  -0.013977   0.544336   0.395987   2.305520  -1.801110  -3.627240   2.958050  -0.000000   0.000000   0.000000   0.774529   4.469290  -1.335570   0.436704   6.535960  -1.132570  -1.848780  -3.544010  -0.827545  -0.000000   0.000000   0.000000
